<svg width="674" height="545" viewBox="0 0 674 545" fill="none" xmlns="http://www.w3.org/2000/svg">
<path d="M674 478.938H0V479.303H674V478.938Z" fill="#EBEBEB"/>
<path d="M606.465 492.864H571.417V493.23H606.465V492.864Z" fill="#EBEBEB"/>
<path d="M479.928 488.9H407.002V489.265H479.928V488.9Z" fill="#EBEBEB"/>
<path d="M582.336 506.454H534.603V506.82H582.336V506.454Z" fill="#EBEBEB"/>
<path d="M102.65 503.996H70.7161V504.362H102.65V503.996Z" fill="#EBEBEB"/>
<path d="M149.48 503.996H114.647V504.362H149.48V503.996Z" fill="#EBEBEB"/>
<path d="M357.409 497.823H283.862V498.189H357.409V497.823Z" fill="#EBEBEB"/>
<path d="M319.476 413.694H59.1906C57.1516 413.691 55.1973 412.809 53.7567 411.243C52.3161 409.677 51.507 407.554 51.507 405.342V8.27974C51.5248 6.07965 52.3417 3.976 53.7804 2.42573C55.219 0.875455 57.1632 0.00376887 59.1906 0H319.476C321.517 0 323.475 0.880034 324.919 2.4465C326.362 4.01297 327.173 6.13756 327.173 8.35288V405.342C327.173 407.557 326.362 409.681 324.919 411.248C323.475 412.814 321.517 413.694 319.476 413.694ZM59.1906 0.292571C57.241 0.296447 55.3724 1.13966 53.995 2.63712C52.6176 4.13459 51.844 6.16394 51.844 8.27974V405.342C51.844 407.457 52.6176 409.487 53.995 410.984C55.3724 412.482 57.241 413.325 59.1906 413.329H319.476C321.427 413.325 323.297 412.482 324.676 410.985C326.056 409.488 326.832 407.459 326.836 405.342V8.27974C326.832 6.1626 326.056 4.13328 324.676 2.63623C323.297 1.13918 321.427 0.296438 319.476 0.292571H59.1906Z" fill="#EBEBEB"/>
<path d="M611.062 413.694H350.763C348.723 413.691 346.767 412.809 345.324 411.244C343.882 409.678 343.07 407.556 343.066 405.342V8.27974C343.087 6.07831 343.907 3.97468 345.348 2.42481C346.789 0.874944 348.734 0.00372777 350.763 0H611.062C613.087 0.00761341 615.028 0.881001 616.464 2.43086C617.899 3.98072 618.714 6.08217 618.732 8.27974V405.342C618.732 407.552 617.925 409.672 616.487 411.238C615.049 412.803 613.099 413.687 611.062 413.694ZM350.763 0.292571C348.812 0.296438 346.942 1.13918 345.563 2.63623C344.183 4.13328 343.407 6.1626 343.403 8.27974V405.342C343.407 407.459 344.183 409.488 345.563 410.985C346.942 412.482 348.812 413.325 350.763 413.329H611.062C613.013 413.325 614.883 412.482 616.262 410.985C617.642 409.488 618.418 407.459 618.422 405.342V8.27974C618.418 6.1626 617.642 4.13328 616.262 2.63623C614.883 1.13918 613.013 0.296438 611.062 0.292571H350.763Z" fill="#EBEBEB"/>
<path d="M167.098 471.492H183.598L183.598 256.321H167.098L167.098 471.492Z" fill="#F0F0F0"/>
<path d="M87.8357 478.908H179.23V471.492H87.8357V478.908Z" fill="#F0F0F0"/>
<path d="M167.098 256.321H83.4951V471.492H167.098V256.321Z" fill="#F5F5F5"/>
<path d="M158.188 368.361H92.4054V406.775H158.188V368.361Z" fill="#F0F0F0"/>
<path d="M158.188 418.654H92.4054V457.068H158.188V418.654Z" fill="#F0F0F0"/>
<path d="M116.049 390.216H134.53C135.61 390.216 136.485 389.266 136.485 388.095V387.071C136.485 385.899 135.61 384.949 134.53 384.949H116.049C114.97 384.949 114.095 385.899 114.095 387.071V388.095C114.095 389.266 114.97 390.216 116.049 390.216Z" fill="#F5F5F5"/>
<path d="M116.049 440.494H134.53C135.61 440.494 136.485 439.544 136.485 438.373V437.349C136.485 436.177 135.61 435.228 134.53 435.228H116.049C114.97 435.228 114.095 436.177 114.095 437.349V438.373C114.095 439.544 114.97 440.494 116.049 440.494Z" fill="#F5F5F5"/>
<path d="M158.188 268.185H92.4054V306.599H158.188V268.185Z" fill="#F0F0F0"/>
<path d="M158.188 318.082H92.4054V356.497H158.188V318.082Z" fill="#F0F0F0"/>
<path d="M116.049 290.04H134.53C135.61 290.04 136.485 289.09 136.485 287.918V286.894C136.485 285.723 135.61 284.773 134.53 284.773H116.049C114.97 284.773 114.095 285.723 114.095 286.894V287.918C114.095 289.09 114.97 290.04 116.049 290.04Z" fill="#F5F5F5"/>
<path d="M116.049 339.923H134.53C135.61 339.923 136.485 338.973 136.485 337.802V336.778C136.485 335.606 135.61 334.657 134.53 334.657H116.049C114.97 334.657 114.095 335.606 114.095 336.778V337.802C114.095 338.973 114.97 339.923 116.049 339.923Z" fill="#F5F5F5"/>
<path d="M258.587 471.492H308.112V256.321H258.587V471.492Z" fill="#F0F0F0"/>
<path d="M179.324 478.908H303.03V471.492H179.324V478.908Z" fill="#F0F0F0"/>
<path d="M258.587 256.321H174.984V471.492H258.587V256.321Z" fill="#F5F5F5"/>
<path d="M249.677 368.361H183.894V406.775H249.677V368.361Z" fill="#F0F0F0"/>
<path d="M249.677 418.654H183.894V457.068H249.677V418.654Z" fill="#F0F0F0"/>
<path d="M207.538 390.216H226.019C227.099 390.216 227.974 389.266 227.974 388.095V387.071C227.974 385.899 227.099 384.949 226.019 384.949H207.538C206.459 384.949 205.583 385.899 205.583 387.071V388.095C205.583 389.266 206.459 390.216 207.538 390.216Z" fill="#F5F5F5"/>
<path d="M207.538 440.494H226.019C227.099 440.494 227.974 439.544 227.974 438.373V437.349C227.974 436.177 227.099 435.228 226.019 435.228H207.538C206.459 435.228 205.583 436.177 205.583 437.349V438.373C205.583 439.544 206.459 440.494 207.538 440.494Z" fill="#F5F5F5"/>
<path d="M249.677 268.185H183.894V306.599H249.677V268.185Z" fill="#F0F0F0"/>
<path d="M249.677 318.082H183.894V356.497H249.677V318.082Z" fill="#F0F0F0"/>
<path d="M207.538 290.04H226.019C227.099 290.04 227.974 289.09 227.974 287.918V286.894C227.974 285.723 227.099 284.773 226.019 284.773H207.538C206.459 284.773 205.583 285.723 205.583 286.894V287.918C205.583 289.09 206.459 290.04 207.538 290.04Z" fill="#F5F5F5"/>
<path d="M207.538 339.923H226.019C227.099 339.923 227.974 338.973 227.974 337.802V336.778C227.974 335.606 227.099 334.657 226.019 334.657H207.538C206.459 334.657 205.583 335.606 205.583 336.778V337.802C205.583 338.973 206.459 339.923 207.538 339.923Z" fill="#F5F5F5"/>
<path d="M370.255 462.978H578.481V35.401H370.255L370.255 462.978Z" fill="#E6E6E6"/>
<path d="M366.103 462.978H574.329V35.401H366.103L366.103 462.978Z" fill="#F5F5F5"/>
<path d="M566.915 453.908V44.4561L373.558 44.4561V453.908H566.915Z" fill="white"/>
<path d="M376.685 453.923V44.4707H373.558V453.923H376.685Z" fill="#E6E6E6"/>
<path d="M369.177 177.254L571.255 177.254V165.083L369.177 165.083V177.254Z" fill="#F5F5F5"/>
<path d="M138.898 206.35L250.957 206.35L250.957 26.0388L138.898 26.0388V206.35Z" fill="#E0E0E0"/>
<path d="M132.09 206.35L248.8 206.35L248.8 26.0388L132.09 26.0388V206.35Z" fill="#F5F5F5"/>
<path d="M141.864 40.2577V192.146H239.014V40.2577H141.864Z" fill="white"/>
<path d="M196.431 134.802C193.209 137.727 187.655 146.505 175.051 132.812C162.447 119.12 170.481 113.108 173.231 109.626C175.981 106.144 161.693 84.7576 154.562 96.1971C147.431 107.637 152.931 121.358 169.282 139.088C185.633 156.818 198.277 162.801 208.792 155.062C219.306 147.324 199.652 131.832 196.431 134.802Z" fill="#F5F5F5"/>
<path d="M205.139 130.282C204.781 130.282 204.438 130.127 204.185 129.853C203.933 129.579 203.791 129.207 203.791 128.819C203.784 121.613 201.142 114.704 196.447 109.608C191.752 104.513 185.385 101.647 178.745 101.639C178.387 101.639 178.044 101.485 177.792 101.21C177.539 100.936 177.397 100.564 177.397 100.176C177.397 99.7881 177.539 99.416 177.792 99.1417C178.044 98.8673 178.387 98.7132 178.745 98.7132C186.1 98.721 193.152 101.895 198.353 107.539C203.554 113.184 206.48 120.837 206.487 128.819C206.487 129.207 206.345 129.579 206.092 129.853C205.839 130.127 205.496 130.282 205.139 130.282Z" fill="#F5F5F5"/>
<path d="M216.475 128.599C216.118 128.599 215.775 128.445 215.522 128.171C215.269 127.897 215.127 127.524 215.127 127.136C215.117 117.113 211.444 107.504 204.914 100.415C198.385 93.3267 189.531 89.3372 180.295 89.3217C179.938 89.3217 179.595 89.1676 179.342 88.8933C179.089 88.6189 178.947 88.2469 178.947 87.8589C178.947 87.4709 179.089 87.0988 179.342 86.8245C179.595 86.5501 179.938 86.396 180.295 86.396C190.247 86.4076 199.789 90.7041 206.824 98.3423C213.86 105.981 217.816 116.336 217.823 127.136C217.823 127.524 217.681 127.897 217.429 128.171C217.176 128.445 216.833 128.599 216.475 128.599Z" fill="#F5F5F5"/>
<path d="M229.254 128.731C228.897 128.731 228.554 128.577 228.301 128.302C228.048 128.028 227.906 127.656 227.906 127.268C227.889 113.549 222.858 100.397 213.917 90.6978C204.977 80.9983 192.856 75.5425 180.214 75.527C179.857 75.527 179.514 75.3729 179.261 75.0986C179.008 74.8242 178.866 74.4521 178.866 74.0642C178.866 73.6762 179.008 73.3041 179.261 73.0298C179.514 72.7554 179.857 72.6013 180.214 72.6013C193.571 72.6168 206.377 78.3808 215.823 88.6291C225.27 98.8773 230.585 112.773 230.602 127.268C230.602 127.656 230.46 128.028 230.208 128.302C229.955 128.577 229.612 128.731 229.254 128.731Z" fill="#F5F5F5"/>
<path d="M86.3799 171.827C89.3859 173.099 97.5683 171.739 94.8453 176.391C93.2248 178.895 91.3481 181.191 89.2511 183.237C86.2046 186.397 86.7843 189.82 90.3834 191.063C91.1214 191.274 91.8014 191.675 92.365 192.233C94.023 194.223 90.1138 196.914 88.1862 198.904C86.2585 200.893 85.4902 202.883 86.9191 204.375C88.3479 205.867 91.7449 205.414 94.3331 205.838C100.574 207.023 94.1578 214.264 94.8183 217.994C95.2767 220.54 97.73 221.242 101.06 221.607C103.756 221.9 107.409 222.105 107.557 224.445C107.692 226.479 104.551 228.834 103.729 230.911C103.335 231.818 103.184 232.826 103.291 233.821C103.398 234.816 103.76 235.759 104.335 236.543C105.582 238.084 107.311 239.069 109.188 239.308C112.275 239.864 116.939 239.308 117.168 242.234C117.263 243.55 116.184 244.706 116.939 245.92C117.89 246.992 119.182 247.63 120.552 247.705C123.514 248.09 126.51 248.046 129.462 247.573C133.088 247.017 138.44 244.326 136.472 241.722C135.709 240.932 134.719 240.451 133.668 240.361C132.792 240.215 130.257 240.449 129.934 239.952C129.61 239.454 130.486 237.553 130.527 236.85C130.609 234.92 130.243 232.999 129.462 231.262C128.383 228.806 126.779 226.664 124.784 225.016C123.935 224.284 122.56 223.743 122.385 222.675C122.21 221.607 123.005 220.437 123.881 219.384C125.229 217.745 127.426 216.18 128.195 214.425C129.422 211.66 126.456 210.782 123.719 210.153C121.239 209.583 117.977 208.851 118.813 206.321C119.433 204.492 122.169 202.985 122.992 201.201C124.083 198.816 121.401 198.714 119.473 197.865C118.952 197.712 118.47 197.432 118.063 197.047C117.655 196.662 117.334 196.182 117.122 195.642C116.911 195.103 116.815 194.519 116.841 193.933C116.868 193.348 117.017 192.777 117.276 192.263C118.759 188.123 127.777 182.271 123.167 179.594C121.994 178.907 120.902 178.673 120.201 177.649C119.5 176.625 119.338 175.177 118.354 174.182C116.804 172.602 113.596 172.339 111.911 170.876C108.474 167.862 115.955 162.523 109.121 161.25C107.721 161.113 106.367 160.638 105.158 159.86C104.537 159.378 104.039 157.023 103.338 156.847C100.224 156.116 94.6027 161.236 92.8368 162.786C90.7204 164.688 82.7807 170.305 86.3799 171.827Z" fill="#E0E0E0"/>
<path d="M139.788 242.014C137.941 239.088 129.866 236.251 135.231 232.901C138.192 231.217 141.298 229.855 144.506 228.834C149.197 227.181 150.868 223.377 148.55 220.218C148.023 219.597 147.672 218.825 147.539 217.994C147.35 215.068 152.513 214.381 155.478 213.328C158.444 212.274 160.372 210.68 160.075 208.398C159.738 205.896 156.462 204.814 154.494 202.956C149.749 198.465 160.008 194.398 161.8 190.244C163.014 187.406 161.302 185.387 158.592 183.281C156.381 181.555 153.308 179.448 154.67 176.976C155.842 174.825 160.062 174.05 162.164 172.353C163.071 171.668 163.817 170.762 164.344 169.708C164.87 168.654 165.163 167.481 165.197 166.282C165.152 165.242 164.896 164.224 164.446 163.304C163.996 162.383 163.364 161.582 162.596 160.958C160.223 158.778 155.734 156.92 157.406 153.804C158.147 152.341 159.846 151.785 159.94 150.162C159.889 149.408 159.677 148.678 159.322 148.028C158.966 147.378 158.476 146.827 157.891 146.417C155.482 144.467 152.802 142.946 149.952 141.911C146.393 140.58 139.963 140.536 140.057 144.223C140.126 144.793 140.305 145.342 140.581 145.833C140.857 146.324 141.225 146.747 141.661 147.075C142.335 147.689 144.721 148.772 144.694 149.445C144.667 150.118 142.686 151.625 142.201 152.371C140.927 154.242 140.036 156.386 139.585 158.661C138.983 161.557 139.034 164.568 139.734 167.438C140.03 168.638 140.906 169.896 140.381 171.081C139.542 172.339 138.335 173.252 136.957 173.67C134.692 174.621 131.794 175.133 129.988 176.508C127.157 178.687 129.219 181.145 131.228 183.222C133.236 185.299 135.474 187.611 133.115 189.703C131.417 191.253 128.047 191.356 126.2 192.76C123.706 194.632 126.011 196.139 127.157 198.012C128.667 200.455 127.966 202.81 125.566 204.916C121.617 208.369 109.943 209.641 112.302 214.805C112.908 216.122 113.65 216.926 113.65 218.345C113.65 219.764 112.841 221.271 113.07 222.851C113.434 225.294 116.103 227.239 116.642 229.624C117.775 234.51 107.813 236.09 112.989 240.932C114.172 241.8 115.106 243.012 115.685 244.428C115.915 245.247 114.863 247.924 115.375 248.465C117.653 250.835 125.849 248.568 128.397 247.88C131.417 247.046 141.998 245.452 139.788 242.014Z" fill="#E6E6E6"/>
<path d="M149.844 226.142C149.844 226.142 149.129 256.321 122.007 256.321C94.8857 256.321 94.1848 226.142 94.1848 226.142H149.844Z" fill="#F0F0F0"/>
<path d="M337 545C481.347 545 598.364 537.586 598.364 528.441C598.364 519.295 481.347 511.881 337 511.881C192.653 511.881 75.6362 519.295 75.6362 528.441C75.6362 537.586 192.653 545 337 545Z" fill="#F5F5F5"/>
<path d="M264.451 34.1137H263.103C263.092 29.7351 263.919 25.4016 265.529 21.3869C267.818 15.6392 271.607 10.744 276.429 7.30503C281.251 3.86602 286.894 2.03348 292.664 2.03336V3.49621C287.161 3.50508 281.779 5.25465 277.178 8.53085C272.576 11.807 268.954 16.4678 266.756 21.9428C265.221 25.7836 264.437 29.9275 264.451 34.1137Z" fill="#90CAF9"/>
<path d="M264.451 43.2419H263.103V62.8734H264.451V43.2419Z" fill="#90CAF9"/>
<path d="M380.244 7.15332H292.678C278.95 7.15332 267.821 19.2304 267.821 34.1283V62.8587C267.821 77.7566 278.95 89.8337 292.678 89.8337H380.244C393.972 89.8337 405.101 77.7566 405.101 62.8587V34.1283C405.101 19.2304 393.972 7.15332 380.244 7.15332Z" fill="#90CAF9"/>
<path d="M352.232 83.6751C360.738 105.457 383.883 113.883 397.309 115.77C384.14 95.8899 384.719 78.4088 384.719 78.4088L352.232 83.6751Z" fill="#90CAF9"/>
<path d="M310.39 30.3542L298.38 27.1798L289.847 36.8785L293.311 49.7516L305.335 52.926L313.868 43.2273L310.39 30.3542Z" fill="#E0E0E0"/>
<path d="M306.185 29.2424L294.161 26.068L285.628 35.7667L289.106 48.6398L301.116 51.8142L309.649 42.1155L306.185 29.2424Z" fill="white"/>
<path d="M376.672 51.7703L334.088 40.5356C333.538 37.1142 332.166 33.9107 330.11 31.2485C328.054 28.5863 325.388 26.5595 322.38 25.3726C319.373 24.1856 316.13 23.8805 312.978 24.488C309.827 25.0956 306.879 26.5942 304.432 28.8328L318.681 32.5923L322.145 45.4654L313.612 55.1788L299.323 51.3461C300.543 54.5715 302.528 57.3891 305.076 59.5123C307.625 61.6356 310.645 62.9889 313.832 63.4347C317.018 63.8804 320.257 63.4029 323.218 62.0504C326.179 60.698 328.758 58.5189 330.691 55.7346L373.275 66.9693C375.126 67.4506 377.078 67.1178 378.704 66.0435C380.33 64.9693 381.499 63.2408 381.956 61.235C382.183 60.2369 382.227 59.2 382.084 58.1836C381.941 57.1672 381.615 56.1914 381.124 55.3121C380.633 54.4328 379.987 53.6673 379.223 53.0596C378.459 52.4518 377.592 52.0137 376.672 51.7703Z" fill="white"/>
<path d="M374.771 64.4386C377.362 64.4386 379.462 62.1594 379.462 59.3479C379.462 56.5364 377.362 54.2572 374.771 54.2572C372.18 54.2572 370.08 56.5364 370.08 59.3479C370.08 62.1594 372.18 64.4386 374.771 64.4386Z" fill="#90CAF9"/>
<path d="M418.284 454.728H405.478V489.851H418.284V454.728Z" fill="#E0E0E0"/>
<path d="M420.819 477.767H402.944L401.704 511.589C401.671 512.45 401.799 513.31 402.081 514.116C402.362 514.922 402.791 515.658 403.341 516.28C403.891 516.902 404.552 517.396 405.283 517.734C406.014 518.072 406.8 518.245 407.595 518.244H416.235C417.029 518.243 417.814 518.068 418.543 517.73C419.272 517.391 419.931 516.896 420.48 516.275C421.029 515.653 421.457 514.918 421.737 514.112C422.018 513.307 422.145 512.449 422.113 511.589L420.819 477.767Z" fill="#263238"/>
<path d="M456.379 517.323C456.002 517.321 455.632 517.219 455.3 517.025C454.969 516.831 454.686 516.552 454.478 516.211C452.705 513.275 450.284 510.865 447.436 509.199C444.588 507.534 441.403 506.666 438.167 506.673H385.595C382.36 506.666 379.174 507.534 376.326 509.199C373.478 510.865 371.058 513.275 369.285 516.211C368.943 516.735 368.427 517.094 367.846 517.212C367.265 517.331 366.664 517.2 366.171 516.846C365.677 516.493 365.33 515.945 365.201 515.319C365.073 514.693 365.174 514.037 365.483 513.49C367.679 509.883 370.666 506.924 374.177 504.881C377.688 502.839 381.612 501.775 385.595 501.787H438.167C442.155 501.765 446.086 502.82 449.604 504.858C453.122 506.896 456.118 509.853 458.32 513.461C458.546 513.833 458.675 514.266 458.694 514.711C458.712 515.157 458.619 515.6 458.424 515.993C458.229 516.386 457.94 516.714 457.587 516.943C457.234 517.172 456.83 517.293 456.419 517.294L456.379 517.323Z" fill="#263238"/>
<path d="M433.463 457.185H390.327C387.995 457.186 385.733 456.313 383.926 454.714C382.118 453.115 380.875 450.887 380.406 448.408L379.058 441.24H444.786L443.438 448.408C442.967 450.897 441.716 453.132 439.897 454.733C438.078 456.333 435.804 457.2 433.463 457.185Z" fill="#263238"/>
<path d="M317.494 438.27H369.204C388.802 438.203 407.723 430.478 422.502 416.508C437.281 402.539 446.929 383.26 449.679 362.202L463.86 253.834H555.228L541.047 362.202C538.296 383.26 528.648 402.539 513.869 416.508C499.091 430.478 480.17 438.203 460.571 438.27H317.494Z" fill="#263238"/>
<path d="M317.494 446.492C316.472 446.538 315.451 446.36 314.493 445.968C313.536 445.575 312.661 444.977 311.923 444.208C311.184 443.439 310.596 442.516 310.194 441.495C309.792 440.473 309.585 439.374 309.585 438.263C309.585 437.152 309.792 436.053 310.194 435.031C310.596 434.01 311.184 433.087 311.923 432.318C312.661 431.549 313.536 430.951 314.493 430.558C315.451 430.166 316.472 429.988 317.494 430.034H369.352C387.088 429.879 404.186 422.829 417.541 410.164C430.897 397.498 439.626 380.056 442.144 361.003L456.325 252.634C456.584 250.672 457.485 248.877 458.864 247.577C460.243 246.277 462.007 245.559 463.833 245.554H555.201C556.287 245.555 557.36 245.809 558.348 246.299C559.336 246.788 560.216 247.503 560.927 248.393C561.639 249.283 562.167 250.329 562.474 251.459C562.781 252.59 562.862 253.779 562.709 254.946L548.528 363.314C542.327 410.725 504.502 446.492 460.544 446.492H317.494ZM470.452 262.026L457.188 363.314C455.413 376.757 451.057 389.646 444.402 401.147C437.747 412.648 428.941 422.504 418.554 430.078H460.571C478.336 429.969 495.474 422.942 508.865 410.275C522.257 397.608 531.013 380.144 533.538 361.061L546.493 262.07L470.452 262.026Z" fill="#263238"/>
<path opacity="0.2" d="M408.848 446.492C407.826 446.538 406.805 446.36 405.847 445.968C404.89 445.575 404.015 444.977 403.276 444.208C402.538 443.439 401.95 442.516 401.548 441.495C401.146 440.473 400.939 439.374 400.939 438.263C400.939 437.152 401.146 436.053 401.548 435.031C401.95 434.01 402.538 433.087 403.276 432.318C404.015 431.549 404.89 430.951 405.847 430.558C406.805 430.166 407.826 429.988 408.848 430.034H460.571C478.336 429.925 495.474 422.898 508.865 410.231C522.257 397.564 531.013 380.1 533.538 361.017L547.719 252.649C547.823 251.546 548.131 250.478 548.625 249.507C549.119 248.537 549.788 247.685 550.592 247.001C551.397 246.318 552.32 245.819 553.307 245.532C554.294 245.245 555.323 245.178 556.335 245.333C557.346 245.489 558.318 245.865 559.193 246.438C560.067 247.011 560.826 247.77 561.423 248.669C562.021 249.567 562.445 250.588 562.671 251.669C562.897 252.75 562.919 253.87 562.736 254.96L548.555 363.328C542.354 410.739 504.529 446.506 460.571 446.506L408.848 446.492Z" fill="white"/>
<path d="M374.03 517.103C374.03 515.703 373.647 514.334 372.93 513.17C372.213 512.006 371.194 511.098 370.002 510.562C368.81 510.026 367.498 509.886 366.232 510.159C364.967 510.433 363.804 511.107 362.892 512.097C361.979 513.087 361.358 514.349 361.106 515.722C360.855 517.096 360.984 518.519 361.478 519.813C361.971 521.107 362.808 522.212 363.881 522.99C364.953 523.768 366.215 524.184 367.505 524.184C369.236 524.184 370.895 523.438 372.119 522.11C373.342 520.782 374.03 518.981 374.03 517.103Z" fill="#263238"/>
<path d="M462.782 517.103C462.782 515.703 462.399 514.334 461.682 513.17C460.965 512.006 459.946 511.098 458.754 510.562C457.562 510.026 456.25 509.886 454.985 510.159C453.719 510.433 452.557 511.107 451.644 512.097C450.732 513.087 450.11 514.349 449.859 515.722C449.607 517.096 449.736 518.519 450.23 519.813C450.724 521.107 451.56 522.212 452.633 522.99C453.706 523.768 454.967 524.184 456.258 524.184C457.988 524.184 459.647 523.438 460.871 522.11C462.094 520.782 462.782 518.981 462.782 517.103Z" fill="#263238"/>
<path d="M456.379 517.323C456.002 517.321 455.632 517.219 455.3 517.025C454.969 516.831 454.686 516.552 454.478 516.211C452.705 513.275 450.284 510.865 447.436 509.199C444.588 507.534 441.403 506.666 438.167 506.673H385.595C382.36 506.666 379.174 507.534 376.326 509.199C373.478 510.865 371.058 513.275 369.285 516.211C368.943 516.735 368.427 517.094 367.846 517.212C367.265 517.331 366.664 517.2 366.171 516.846C365.677 516.493 365.33 515.945 365.201 515.319C365.073 514.693 365.174 514.037 365.483 513.49C367.679 509.883 370.666 506.924 374.177 504.881C377.688 502.839 381.612 501.775 385.595 501.787H438.167C442.155 501.765 446.086 502.82 449.604 504.858C453.122 506.896 456.118 509.853 458.32 513.461C458.546 513.833 458.675 514.266 458.694 514.711C458.712 515.157 458.619 515.6 458.424 515.993C458.229 516.386 457.94 516.714 457.587 516.943C457.234 517.172 456.83 517.293 456.419 517.294L456.379 517.323Z" fill="#263238"/>
<path d="M434.137 521.492C433.656 521.488 433.188 521.321 432.799 521.014C432.409 520.707 432.118 520.276 431.967 519.78C430.322 514.353 427.599 510.828 425.024 510.828H398.738C396.164 510.828 393.441 514.353 391.796 519.78C391.591 520.379 391.181 520.869 390.65 521.146C390.12 521.424 389.512 521.468 388.952 521.269C388.393 521.071 387.926 520.645 387.649 520.081C387.373 519.517 387.308 518.859 387.469 518.244C389.815 510.506 394.02 505.898 398.738 505.898H425.024C429.742 505.898 433.948 510.506 436.294 518.244C436.481 518.867 436.433 519.545 436.16 520.129C435.887 520.713 435.411 521.156 434.838 521.36C434.613 521.447 434.376 521.491 434.137 521.492Z" fill="#263238"/>
<path d="M396.15 521.273C396.15 519.872 395.768 518.503 395.051 517.339C394.334 516.175 393.315 515.267 392.123 514.731C390.931 514.195 389.619 514.055 388.353 514.328C387.088 514.602 385.925 515.276 385.013 516.266C384.1 517.256 383.479 518.518 383.227 519.891C382.975 521.265 383.104 522.688 383.598 523.982C384.092 525.276 384.928 526.382 386.001 527.16C387.074 527.938 388.336 528.353 389.626 528.353C391.356 528.353 393.016 527.607 394.239 526.279C395.463 524.951 396.15 523.15 396.15 521.273Z" fill="#263238"/>
<path d="M440.661 521.273C440.661 519.872 440.279 518.503 439.562 517.339C438.845 516.175 437.826 515.267 436.634 514.731C435.441 514.195 434.13 514.055 432.864 514.328C431.598 514.602 430.436 515.276 429.523 516.266C428.611 517.256 427.99 518.518 427.738 519.891C427.486 521.265 427.615 522.688 428.109 523.982C428.603 525.276 429.439 526.382 430.512 527.16C431.585 527.938 432.846 528.353 434.137 528.353C435.867 528.353 437.527 527.607 438.75 526.279C439.974 524.951 440.661 523.15 440.661 521.273Z" fill="#263238"/>
<path d="M271.46 424.11L294.417 434.92L281.26 451.582L262.065 442.556L271.46 424.11Z" fill="#FFB573"/>
<path opacity="0.2" d="M271.474 424.11L294.43 434.935L287.057 444.268L266.203 434.452L271.474 424.11Z" fill="black"/>
<path d="M284.522 460.257L281.934 459.613C281.174 459.426 280.467 459.038 279.877 458.484C279.287 457.931 278.832 457.229 278.551 456.439L276.893 457.273C275.935 457.765 274.853 457.894 273.819 457.639L238.407 448.861C238.502 445.409 241.305 441.547 241.305 441.547C241.305 441.547 257.064 444.473 261.62 440.392C261.799 440.255 262.011 440.175 262.23 440.162C262.449 440.149 262.668 440.203 262.86 440.318C265.718 441.781 276.987 447.062 284.212 446.316C284.436 446.297 284.661 446.335 284.869 446.427C285.077 446.519 285.262 446.662 285.41 446.845C285.558 447.028 285.664 447.247 285.721 447.482C285.777 447.718 285.782 447.965 285.736 448.203C285.063 452.184 284.658 456.213 284.522 460.257Z" fill="#263238"/>
<path d="M262.24 441.503C262.189 441.503 262.139 441.491 262.092 441.468C262.046 441.446 262.004 441.413 261.97 441.372C261.822 441.196 258.223 436.983 258.331 434.599C258.336 434.36 258.387 434.125 258.48 433.909C258.573 433.692 258.705 433.499 258.87 433.341C259.055 433.139 259.295 433.006 259.554 432.961C259.813 432.917 260.079 432.962 260.312 433.092C261.862 433.94 262.833 438.636 262.631 441.138C262.621 441.216 262.592 441.289 262.547 441.351C262.502 441.413 262.443 441.46 262.375 441.489L262.24 441.503ZM259.76 433.765C259.685 433.769 259.612 433.79 259.545 433.825C259.478 433.86 259.418 433.909 259.369 433.97C259.279 434.052 259.209 434.155 259.162 434.272C259.115 434.389 259.094 434.515 259.099 434.642C259.032 436.105 260.744 438.578 261.889 440.04C261.809 437.627 260.959 434.365 259.975 433.823C259.908 433.788 259.834 433.769 259.76 433.765Z" fill="#263238"/>
<path d="M259.45 441.679C257.946 441.815 256.438 441.475 255.109 440.699C254.934 440.557 254.788 440.378 254.681 440.171C254.574 439.964 254.509 439.735 254.489 439.499C254.437 439.211 254.473 438.911 254.592 438.647C254.711 438.383 254.907 438.168 255.149 438.036C256.686 437.188 260.757 439.104 262.496 440.757C262.551 440.809 262.592 440.877 262.612 440.954C262.632 441.03 262.632 441.111 262.61 441.187C262.589 441.263 262.548 441.331 262.491 441.382C262.435 441.433 262.367 441.465 262.294 441.474C261.35 441.599 260.4 441.667 259.45 441.679ZM256.12 438.665C255.889 438.657 255.66 438.702 255.446 438.797C255.311 438.885 255.163 439.016 255.203 439.426C255.217 439.55 255.254 439.67 255.312 439.778C255.37 439.886 255.448 439.981 255.54 440.055C256.565 440.947 259.45 440.933 261.215 440.786C259.701 439.64 257.952 438.912 256.12 438.665Z" fill="#263238"/>
<path d="M477.637 345.73L467.756 368.068C453.251 401.041 417.516 417.615 388.979 404.639C372.318 397.062 354.133 381.044 341.799 373.715C331.217 398.89 311.401 426.655 296.236 445.98L265.556 429.23C277.014 400.69 294.848 356.087 306.171 327.181C308.187 322.056 311.494 317.65 315.712 314.47C319.929 311.29 324.887 309.465 330.017 309.203C381.026 307.711 477.637 345.73 477.637 345.73Z" fill="#90CAF9"/>
<path d="M445.959 114.512C440.203 112.449 433.638 116.414 433.557 130.369C433.476 144.325 445.164 151.8 450.097 133.763C453.063 122.88 450.232 116.019 445.959 114.512Z" fill="#E0E0E0"/>
<path d="M328.535 497.179L353.526 495.907L348.498 517.147L327.604 518.23L328.535 497.179Z" fill="#FFB573"/>
<path opacity="0.2" d="M328.548 497.179L353.54 495.907L350.723 507.814L328.022 508.985L328.548 497.179Z" fill="black"/>
<path d="M352.327 528.353H349.631C348.851 528.352 348.084 528.141 347.397 527.741C346.71 527.34 346.126 526.761 345.695 526.056L344.252 527.285C343.414 527.986 342.385 528.367 341.327 528.367H305.039C304.419 524.988 306.387 520.57 306.387 520.57C306.387 520.57 322.347 519.649 325.946 514.573C326.076 514.379 326.254 514.228 326.459 514.137C326.664 514.047 326.888 514.02 327.106 514.061C330.193 514.763 342.271 517.25 349.159 514.778C349.372 514.704 349.598 514.686 349.818 514.725C350.039 514.764 350.248 514.858 350.429 515C350.61 515.142 350.757 515.329 350.86 515.544C350.962 515.759 351.017 515.998 351.019 516.24C351.185 520.307 351.622 524.355 352.327 528.353Z" fill="#263238"/>
<path d="M326.688 515.436C326.61 515.44 326.534 515.414 326.472 515.363C326.283 515.231 321.929 512.042 321.538 509.628C321.495 509.396 321.497 509.156 321.543 508.925C321.589 508.693 321.68 508.474 321.808 508.282C321.946 508.041 322.15 507.853 322.392 507.745C322.634 507.637 322.902 507.615 323.156 507.683C324.828 508.151 326.742 512.481 327.052 514.997C327.06 515.078 327.046 515.159 327.013 515.232C326.979 515.304 326.927 515.365 326.863 515.406C326.808 515.435 326.748 515.445 326.688 515.436ZM322.846 508.458C322.757 508.468 322.671 508.502 322.596 508.555C322.521 508.609 322.459 508.681 322.415 508.765C322.347 508.87 322.301 508.99 322.28 509.117C322.26 509.243 322.264 509.372 322.293 509.497C322.522 510.959 324.693 512.934 326.122 514.09C325.555 511.749 324.046 508.78 322.981 508.487L322.846 508.458Z" fill="#263238"/>
<path d="M321.282 516.679C320.719 516.705 320.157 516.595 319.638 516.357C319.439 516.26 319.26 516.118 319.114 515.942C318.968 515.766 318.857 515.559 318.789 515.333C318.691 515.067 318.672 514.775 318.735 514.497C318.798 514.219 318.939 513.969 319.139 513.783C320.487 512.583 324.828 513.475 326.863 514.66C326.926 514.701 326.977 514.759 327.013 514.829C327.048 514.898 327.066 514.976 327.065 515.055C327.06 515.135 327.033 515.211 326.987 515.274C326.942 515.337 326.88 515.383 326.809 515.406C325.034 516.12 323.172 516.549 321.282 516.679ZM321.282 514.017C320.71 513.966 320.137 514.104 319.638 514.412C319.516 514.529 319.409 514.69 319.516 515.085C319.557 515.203 319.62 515.311 319.701 515.402C319.782 515.493 319.88 515.564 319.988 515.611C321.174 516.24 323.965 515.538 325.663 514.968C324.259 514.38 322.773 514.058 321.269 514.017H321.282Z" fill="#263238"/>
<path d="M491.926 336.88L491.764 360.476C491.508 395.277 464.319 426.304 431.859 428.967C412.906 430.429 387.294 430.956 372.547 430.634C370.403 455.005 363.38 483.721 356.371 504.523L324.45 502.109C323.614 472.574 322.388 430.693 321.363 402.913C320.959 392.088 327.146 381.439 336.663 376.348C384.45 350.777 491.926 336.88 491.926 336.88Z" fill="#90CAF9"/>
<path opacity="0.1" d="M349.496 504.83C349.425 504.844 349.352 504.844 349.28 504.83C349.089 504.766 348.929 504.622 348.835 504.43C348.742 504.238 348.723 504.014 348.781 503.806C353.607 486.588 362.261 432.843 362.679 408.165C362.692 407.93 362.789 407.71 362.949 407.55C363.031 407.477 363.125 407.422 363.227 407.389C363.329 407.356 363.437 407.347 363.542 407.36C410.169 414.089 441.726 411.749 454.869 400.748C477.906 381.322 477.569 349.87 471.733 333.457C471.659 333.253 471.664 333.026 471.744 332.826C471.825 332.626 471.976 332.469 472.164 332.389C472.352 332.31 472.561 332.314 472.745 332.402C472.93 332.49 473.075 332.654 473.148 332.857C479.147 349.709 479.484 382.038 455.799 402.021C442.238 413.446 411.423 415.83 364.135 409.086C363.556 434.262 354.969 487.173 350.183 504.245C350.141 504.409 350.051 504.554 349.928 504.659C349.804 504.764 349.653 504.824 349.496 504.83Z" fill="black"/>
<path opacity="0.2" d="M340.559 376.611C335.082 388.524 328.735 399.941 321.579 410.754C321.741 415.625 321.916 420.789 322.091 426.158C333.387 406.804 340.572 376.582 340.572 376.582L340.559 376.611Z" fill="black"/>
<path d="M406.382 232.593L405.182 233.427L404.211 234.071L402.324 235.256C401.07 236.031 399.817 236.719 398.577 237.392C396.083 238.767 393.522 239.952 390.92 241.078C385.638 243.349 380.173 245.083 374.596 246.256C371.751 246.856 368.826 247.28 365.861 247.588C362.829 247.84 359.786 247.893 356.748 247.749C353.602 247.611 350.47 247.215 347.38 246.564C344.202 245.864 341.083 244.886 338.051 243.638L336.811 243.141C334.935 242.393 333.242 241.186 331.864 239.615C328.929 236.267 326.686 232.277 325.286 227.912C324.179 224.458 323.512 220.855 323.304 217.204C322.972 211.313 323.426 205.4 324.652 199.65C325.721 194.561 327.173 189.575 328.993 184.744C329.883 182.388 330.853 180.092 331.878 177.839L333.482 174.474C334.075 173.348 334.614 172.339 335.302 171.066C336.286 169.267 337.79 167.871 339.58 167.095C341.371 166.319 343.348 166.207 345.203 166.776C347.058 167.345 348.688 168.563 349.84 170.241C350.992 171.918 351.601 173.962 351.572 176.054V177.517C351.572 178.409 351.437 179.594 351.383 180.648L351.154 183.91C350.992 186.075 350.898 188.298 350.803 190.376C350.709 192.453 350.669 194.618 350.655 196.666C350.642 198.714 350.655 200.747 350.777 202.678C350.865 206.085 351.35 209.467 352.219 212.743C352.465 213.696 352.877 214.59 353.432 215.376C353.81 215.8 353.985 215.595 353.783 215.112L347.595 211.089C350.636 211.686 353.735 211.858 356.816 211.601C358.504 211.468 360.183 211.224 361.844 210.87C363.556 210.548 365.308 210.153 367.074 209.627C368.84 209.1 370.606 208.486 372.398 207.842C374.191 207.198 375.971 206.379 377.79 205.618C379.61 204.858 381.336 203.936 383.102 203.058C383.964 202.62 384.827 202.151 385.649 201.698L386.862 201.025L387.429 200.718C387.55 200.645 387.833 200.469 387.739 200.557C391.653 197.874 396.39 196.989 400.906 198.096C405.422 199.203 409.349 202.211 411.821 206.46C414.293 210.708 415.109 215.848 414.089 220.749C413.069 225.65 410.296 229.911 406.382 232.593Z" fill="#FFB573"/>
<path d="M337.822 181.13L347.878 181.642C357.948 178.088 351.491 164.834 351.491 164.834L350.75 157.11C350.529 155.762 349.879 154.54 348.913 153.658C347.948 152.776 346.728 152.289 345.465 152.283L338.442 151.859C335.234 151.668 332.457 153.994 332.295 157.008L331.905 163.766C331.795 165.736 332.133 167.705 332.889 169.501L337.822 181.13Z" fill="#FFB573"/>
<path d="M423.272 184.524C419.026 178.351 405.263 179.799 397.31 189.556C394.02 189.41 381.134 202.064 371.266 204.77C361.399 207.476 354.281 220.422 357.031 227.722C362.113 241.195 365.564 247.646 374.744 248.729C383.924 249.811 396.002 243.36 405.748 235.446C415.494 227.532 430.767 195.481 423.272 184.524Z" fill="#E0E0E0"/>
<path d="M367.033 204.507C359.363 199.153 351.828 208.135 351.828 219.428C351.828 230.721 354.268 240.347 358.002 246.973C361.736 253.6 368.327 253.044 374.474 252.737C379.785 252.459 382.401 250.382 379.866 245.145C377.332 239.908 367.99 232.33 366.602 217.614C365.834 210.168 370.579 206.979 367.033 204.507Z" fill="#FAFAFA"/>
<path d="M365.065 309.174C363.421 311.017 362.235 318.156 365.578 328.849C367.883 336.266 376.955 332.565 376.955 332.565C376.955 332.565 378.545 346.008 389.842 348.89C408.458 353.63 478.675 352.357 490.605 342.307C453.184 341.883 365.065 309.174 365.065 309.174Z" fill="#FAFAFA"/>
<path d="M428.044 179.609C446.415 179.721 464.738 181.651 482.786 185.373C485.763 186.048 488.582 187.375 491.07 189.273C493.558 191.171 495.663 193.6 497.257 196.411C498.85 199.222 499.899 202.356 500.338 205.622C500.777 208.888 500.598 212.217 499.811 215.405C486.331 271.125 493.934 332.316 492.869 343.478C492.869 343.478 385.124 360.315 368.611 325.558C346.436 286.236 384.18 260.548 397.08 205.311C400.491 190.712 414.173 179.521 428.044 179.609Z" fill="#263238"/>
<path opacity="0.1" d="M428.044 179.609C446.415 179.721 464.738 181.651 482.786 185.373C485.763 186.048 488.582 187.375 491.07 189.273C493.558 191.171 495.663 193.6 497.257 196.411C498.85 199.222 499.899 202.356 500.338 205.622C500.777 208.888 500.598 212.217 499.811 215.405C486.331 271.125 493.934 332.316 492.869 343.478C492.869 343.478 385.124 360.315 368.611 325.558C346.436 286.236 384.18 260.548 397.08 205.311C400.491 190.712 414.173 179.521 428.044 179.609Z" fill="white"/>
<path opacity="0.4" d="M464.076 182.198L463.887 182.11L463.294 181.891L463.132 182.023C454.087 180.852 444.665 180.092 435.674 179.784C433.476 179.697 431.306 179.653 429.176 179.624C426.362 181.343 424.196 184.083 423.056 187.362C420.36 194.764 422.274 203.015 428.354 209.422L428.853 209.948L429.567 209.875C442.778 208.486 467.473 197.002 468.511 188.152C468.686 186.66 468.336 183.88 464.076 182.198Z" fill="#FAFAFA"/>
<path d="M502.373 223.085L503.357 225.133L504.233 227.005C504.812 228.249 505.325 229.492 505.864 230.736C506.929 233.208 507.872 235.709 508.83 238.225C510.663 243.258 512.375 248.363 513.804 253.6C514.545 256.204 515.152 258.837 515.88 261.499C516.607 264.162 517.052 266.853 517.565 269.589C518.631 275.105 519.406 280.683 519.883 286.295L520.018 287.758C520.205 289.918 519.966 292.097 519.317 294.15C518.286 297.362 516.713 300.339 514.68 302.927C512.953 305.126 510.931 307.03 508.681 308.574C505.299 310.864 501.585 312.516 497.695 313.46C491.862 314.857 485.876 315.349 479.915 314.923C474.632 314.589 469.379 313.836 464.197 312.67C461.663 312.129 459.169 311.456 456.689 310.739C454.209 310.022 451.836 309.276 449.221 308.223C447.329 307.494 445.725 306.085 444.674 304.229C443.623 302.373 443.189 300.183 443.444 298.022C443.699 295.862 444.628 293.861 446.076 292.353C447.525 290.845 449.405 289.92 451.405 289.732H451.917L458.657 289.118C460.962 288.942 463.24 288.694 465.491 288.445C467.742 288.196 469.98 287.918 472.164 287.611C474.348 287.304 476.478 286.938 478.54 286.499C482.181 285.864 485.739 284.754 489.135 283.193C490.375 282.535 491.252 281.731 491.171 281.57C491.09 281.409 490.847 281.57 490.429 281.95C489.914 282.497 489.502 283.148 489.216 283.866L488.65 291.678C487.639 287.406 486.574 283.135 485.28 278.819C484.646 276.669 483.932 274.431 483.218 272.354C482.503 270.276 481.87 267.965 481.034 265.873C479.47 261.572 477.92 257.242 476.235 252.956L473.701 246.564L471.247 240.551L470.937 239.761C469.135 235.277 469.002 230.21 470.567 225.623C472.132 221.035 475.272 217.283 479.331 215.153C483.389 213.023 488.049 212.68 492.335 214.197C496.62 215.714 500.198 218.973 502.319 223.29L502.373 223.085Z" fill="#FFB573"/>
<path d="M420.697 276.947H400.585C399.558 276.947 398.725 277.851 398.725 278.966V307.14C398.725 308.255 399.558 309.159 400.585 309.159H420.697C421.725 309.159 422.558 308.255 422.558 307.14V278.966C422.558 277.851 421.725 276.947 420.697 276.947Z" fill="#90CAF9"/>
<path d="M420.697 283.193C421.921 283.142 423.141 283.36 424.285 283.832C425.43 284.305 426.474 285.024 427.356 285.945C428.239 286.866 428.94 287.971 429.42 289.194C429.899 290.417 430.146 291.732 430.146 293.06C430.146 294.389 429.899 295.704 429.42 296.927C428.94 298.149 428.239 299.254 427.356 300.176C426.474 301.097 425.43 301.815 424.285 302.288C423.141 302.761 421.921 302.978 420.697 302.927H420.576C419.352 302.978 418.132 302.761 416.988 302.288C415.844 301.815 414.799 301.097 413.917 300.176C413.035 299.254 412.333 298.149 411.853 296.927C411.374 295.704 411.127 294.389 411.127 293.06C411.127 291.732 411.374 290.417 411.853 289.194C412.333 287.971 413.035 286.866 413.917 285.945C414.799 285.024 415.844 284.305 416.988 283.832C418.132 283.36 419.352 283.142 420.576 283.193H420.738M420.738 280.268H420.576C418.989 280.21 417.407 280.499 415.926 281.118C414.444 281.736 413.092 282.673 411.95 283.87C410.809 285.068 409.901 286.503 409.281 288.089C408.661 289.676 408.341 291.381 408.341 293.104C408.341 294.827 408.661 296.533 409.281 298.119C409.901 299.706 410.809 301.14 411.95 302.338C413.092 303.536 414.444 304.472 415.926 305.091C417.407 305.71 418.989 305.999 420.576 305.941H420.738C422.325 305.999 423.906 305.71 425.388 305.091C426.87 304.472 428.222 303.536 429.364 302.338C430.505 301.14 431.413 299.706 432.033 298.119C432.653 296.533 432.973 294.827 432.973 293.104C432.973 291.381 432.653 289.676 432.033 288.089C431.413 286.503 430.505 285.068 429.364 283.87C428.222 282.673 426.87 281.736 425.388 281.118C423.906 280.499 422.325 280.21 420.738 280.268Z" fill="#90CAF9"/>
<path d="M452.267 294.823L452.187 301.728C448.318 312.421 436.509 304.654 436.509 304.654L429.446 303.395C428.219 303.076 427.134 302.299 426.38 301.2C425.626 300.102 425.251 298.751 425.321 297.383V289.747C425.242 288.176 425.73 286.633 426.681 285.445C427.632 284.258 428.972 283.518 430.416 283.384H436.752C438.571 283.397 440.359 283.899 441.955 284.847L449.086 288.972C450.055 289.543 450.862 290.39 451.422 291.42C451.983 292.451 452.275 293.627 452.267 294.823Z" fill="#FFB573"/>
<path d="M486.978 191.151C493.961 189.688 503.154 200.908 502.966 213.942C505.473 216.239 509.814 235.387 515.367 244.662C520.921 253.936 518.063 268.653 511.539 272.003C499.407 278.19 492.829 280.414 485.388 274.475C477.947 268.536 469.4 254.712 468.16 241.59C466.408 222.353 474.59 193.682 486.978 191.151Z" fill="#E0E0E0"/>
<path d="M477.367 266.927C472.946 275.587 481.694 283.179 492.02 282.521C502.346 281.862 511.081 278.512 516.945 274.036C522.808 269.56 521.865 262.479 521.164 255.823C520.571 250.089 518.468 247.397 513.844 250.484C509.22 253.571 502.831 264.176 489.391 266.575C482.651 267.863 479.403 262.933 477.367 266.927Z" fill="#FAFAFA"/>
<path d="M426.211 186.704C427.837 183.751 430.336 181.483 433.301 180.267C434.545 177.305 434.812 173.968 434.056 170.817L467.379 161.689C464.076 173.245 461.488 182.374 465.181 188.328C458.522 192.16 446.309 199.021 433.503 197.778C420.697 196.534 423.852 191.487 426.211 186.704Z" fill="#FFB573"/>
<path opacity="0.2" d="M434.258 171.929L458.873 172.002C450.704 180.384 438.882 182.959 433.786 178.995C434.49 176.72 434.652 174.29 434.258 171.929Z" fill="black"/>
<path d="M474.766 144.032C470.021 160.285 466.475 171.197 456.042 175.776C435.323 184.846 426.871 172.997 427.046 155.501C427.208 139.746 434.946 115.829 451.31 113.459C454.941 112.931 458.635 113.411 462.047 114.855C465.46 116.298 468.479 118.658 470.822 121.713C473.166 124.767 474.757 128.417 475.446 132.321C476.136 136.224 475.902 140.254 474.766 144.032Z" fill="#FFB573"/>
<path d="M464.858 156.818C458.697 153.892 460.558 151.859 460.558 151.859C460.558 151.859 465.545 145.832 466.341 142.321C467.136 138.81 462.297 131.306 464.009 127.371C465.721 123.435 483.811 121.519 491.481 131.569C489.683 131.998 487.848 132.214 486.008 132.213C487.555 134.062 488.551 136.376 488.866 138.85C489.181 141.325 488.8 143.845 487.774 146.08C484.242 154.17 471.423 160.021 464.858 156.818Z" fill="#E0E0E0"/>
<path d="M431.36 158.515L447.28 158.778C447.28 158.778 445.029 162.947 438.343 163.591C431.657 164.234 431.36 158.515 431.36 158.515Z" fill="#263238"/>
<path d="M431.683 158.515C432.182 159.626 433.692 161.294 438.262 160.855C440.754 160.685 443.189 159.968 445.42 158.749C442.602 158.719 436.954 158.617 431.683 158.515Z" fill="white"/>
<path opacity="0.2" d="M454.06 141.809C455.929 141.409 457.868 141.83 459.452 142.979C457.602 142.969 455.771 142.572 454.06 141.809Z" fill="black"/>
<path opacity="0.2" d="M453.885 143.228C454.75 143.242 455.602 143.46 456.382 143.867C457.161 144.273 457.85 144.859 458.401 145.583C456.758 145.155 455.219 144.352 453.885 143.228Z" fill="black"/>
<path opacity="0.2" d="M433.072 136.338C433.072 136.338 432.034 134.509 430.969 135.241C431.236 135.564 431.559 135.828 431.92 136.016C432.281 136.205 432.672 136.314 433.072 136.338Z" fill="black"/>
<path opacity="0.2" d="M432.708 137.61C432.708 137.61 431.886 135.972 431.023 137.259C431.233 137.504 431.51 137.67 431.813 137.733C432.116 137.796 432.429 137.753 432.708 137.61Z" fill="black"/>
<path opacity="0.2" d="M441.349 122.294C445.997 122.339 450.61 123.178 455.017 124.781C450.422 124.232 445.858 123.402 441.349 122.294Z" fill="black"/>
<path opacity="0.2" d="M439.205 124.576C439.205 124.576 449.747 125.864 454.613 129.301C449.354 128.246 444.196 126.664 439.205 124.576Z" fill="black"/>
<path d="M476.747 161.118C475.518 162.758 474.003 164.118 472.289 165.122C470.575 166.126 468.696 166.754 466.758 166.97C461.542 167.511 459.816 162.201 462 157.388C463.955 153 469.037 147.543 473.903 149.24C478.769 150.937 479.74 157.008 476.747 161.118Z" fill="#FFB573"/>
<path d="M449.828 141.575C449.518 142.921 448.614 143.828 447.806 143.608C446.997 143.389 446.592 142.145 446.902 140.756C447.212 139.366 448.116 138.503 448.924 138.737C449.733 138.971 450.138 140.244 449.828 141.575Z" fill="#263238"/>
<path d="M436.658 138.196C436.348 139.541 435.444 140.448 434.636 140.214C433.827 139.98 433.422 138.751 433.732 137.376C434.043 136.001 434.946 135.124 435.754 135.358C436.563 135.592 436.968 136.85 436.658 138.196Z" fill="#263238"/>
<path d="M440.675 140.434L438.1 151.742C438.1 151.742 433.894 151.742 431.994 149.123C434.716 143.667 440.675 140.434 440.675 140.434Z" fill="#ED893E"/>
<path d="M454.936 138.283C455.056 138.319 455.181 138.319 455.3 138.283C455.393 138.243 455.476 138.184 455.547 138.108C455.617 138.032 455.673 137.942 455.711 137.842C455.748 137.743 455.767 137.636 455.766 137.528C455.765 137.421 455.744 137.314 455.705 137.215C455.266 136.008 454.57 134.931 453.672 134.074C452.774 133.217 451.701 132.604 450.542 132.286C450.442 132.259 450.338 132.255 450.237 132.274C450.135 132.293 450.038 132.334 449.952 132.394C449.866 132.455 449.792 132.535 449.735 132.628C449.678 132.721 449.639 132.825 449.62 132.935C449.602 133.045 449.605 133.158 449.628 133.266C449.651 133.375 449.694 133.478 449.756 133.568C449.817 133.657 449.894 133.733 449.983 133.789C450.072 133.845 450.17 133.881 450.272 133.895C451.184 134.165 452.024 134.663 452.726 135.349C453.429 136.035 453.973 136.889 454.316 137.844C454.375 137.97 454.463 138.077 454.572 138.154C454.681 138.231 454.807 138.276 454.936 138.283Z" fill="#E0E0E0"/>
<path d="M430.47 132.183C430.59 132.215 430.716 132.214 430.836 132.181C430.956 132.148 431.066 132.083 431.158 131.993C431.825 131.275 432.639 130.737 433.534 130.424C434.429 130.112 435.379 130.033 436.307 130.194C436.402 130.22 436.501 130.225 436.597 130.208C436.694 130.192 436.786 130.155 436.869 130.099C436.952 130.043 437.024 129.969 437.08 129.883C437.137 129.796 437.176 129.698 437.197 129.594C437.242 129.385 437.209 129.165 437.105 128.981C437.002 128.798 436.836 128.666 436.644 128.614C435.477 128.385 434.277 128.463 433.144 128.842C432.011 129.222 430.978 129.891 430.133 130.794C429.993 130.947 429.914 131.155 429.914 131.371C429.914 131.588 429.993 131.796 430.133 131.949C430.225 132.058 430.341 132.139 430.47 132.183Z" fill="#E0E0E0"/>
<path d="M350.399 182.491C357.746 177.546 356.991 169.15 358.285 162.464C358.514 161.323 356.115 159.656 354.699 161.089C353.763 161.893 352.984 162.892 352.41 164.028C351.836 165.163 351.478 166.413 351.356 167.701C348.66 168.14 341.799 172.178 342.877 180.384C345.063 182.061 347.739 182.81 350.399 182.491Z" fill="#FFB573"/>
<path d="M436.644 153.482C436.644 153.482 435.916 156.408 438.06 157.037C440.203 157.666 445.757 154.302 450.326 157.52C448.722 155.062 443.694 151.551 436.644 153.482Z" fill="#E0E0E0"/>
<path d="M434.339 153C434.339 153 433.975 155.706 432.101 155.925C430.228 156.145 426.979 152.502 422.396 154.828C424.009 153.301 425.997 152.315 428.117 151.99C430.238 151.666 432.399 152.016 434.339 153Z" fill="#E0E0E0"/>
<path d="M429.419 208.237C446.943 206.379 477.286 189.22 463.564 183.749C454.923 191.195 440.405 194.164 433.571 194.179C431.036 191.531 430.241 184.144 433.301 180.267C426.143 179.609 417.152 195.291 429.419 208.237Z" fill="#FAFAFA"/>
<path d="M433.571 194.179C439.933 189.425 460.086 177.883 465.734 177.985C466.397 180.357 466.504 182.871 466.044 185.299C466.044 185.299 458.603 194.135 433.571 194.179Z" fill="#E0E0E0"/>
<path d="M433.571 194.179C433.571 194.179 434.555 179.272 433.315 176.127C432.271 176.568 431.351 177.294 430.642 178.235C429.934 179.175 429.461 180.299 429.271 181.496C429.271 181.496 430.592 191.897 433.571 194.179Z" fill="#E0E0E0"/>
<path d="M481.371 126.932C472.245 128.117 445.204 125.352 436.361 114.293C427.518 103.233 433.962 95.729 443.425 102.122C443.425 102.122 437.143 92.8472 447.239 95.1731C456.77 97.3674 468.053 115.331 482.382 114.571C494.581 113.912 490.389 125.805 481.371 126.932Z" fill="#E0E0E0"/>
<path d="M477.111 166.677C472.865 170.408 467.271 170.539 464.615 166.985C461.96 163.43 463.267 157.52 467.486 153.819C471.706 150.118 477.327 149.957 479.982 153.512C482.638 157.066 481.344 162.947 477.111 166.677Z" fill="#263238"/>
<path d="M441.955 172.382C441.47 172.183 441.047 171.839 440.732 171.392C440.418 170.944 440.225 170.409 440.176 169.849C440.128 169.288 440.225 168.724 440.456 168.221C440.687 167.717 441.044 167.293 441.486 166.999C441.928 166.704 442.437 166.549 442.956 166.552C443.475 166.555 443.982 166.715 444.421 167.016C444.86 167.316 445.213 167.743 445.439 168.25C445.666 168.756 445.757 169.321 445.703 169.881C445.501 170.745 444.997 171.491 444.297 171.958C443.597 172.425 442.757 172.577 441.955 172.382Z" fill="#263238"/>
<path d="M476.828 156.876C476.593 156.875 476.361 156.814 476.151 156.7C475.941 156.586 475.757 156.421 475.615 156.218C475.494 156.047 475.406 155.852 475.355 155.644C475.304 155.436 475.292 155.219 475.318 155.006C475.344 154.793 475.409 154.587 475.509 154.401C475.608 154.215 475.74 154.052 475.898 153.921C479.308 151.098 481.384 144.076 481.088 136.367C480.899 131.481 479.322 119.325 468.956 112.142C468.788 112.027 468.642 111.877 468.527 111.701C468.412 111.524 468.331 111.325 468.287 111.115C468.243 110.904 468.238 110.686 468.272 110.473C468.306 110.261 468.378 110.057 468.484 109.875C468.59 109.692 468.728 109.534 468.891 109.41C469.053 109.285 469.237 109.197 469.431 109.149C469.625 109.102 469.826 109.096 470.022 109.133C470.218 109.169 470.405 109.248 470.573 109.363C478.742 115.009 483.689 124.811 484.134 136.235C484.471 145.013 481.977 152.97 477.758 156.467C477.501 156.715 477.172 156.86 476.828 156.876Z" fill="#263238"/>
<path d="M449.464 172.382C447.25 172.379 445.039 172.218 442.845 171.9C442.745 171.887 442.649 171.853 442.562 171.8C442.475 171.746 442.398 171.675 442.337 171.589C442.275 171.503 442.23 171.405 442.204 171.3C442.178 171.195 442.171 171.086 442.184 170.978C442.214 170.764 442.32 170.572 442.478 170.441C442.637 170.31 442.836 170.251 443.034 170.276C459.21 172.573 468.875 165.361 468.969 165.288C469.134 165.161 469.337 165.111 469.536 165.148C469.734 165.186 469.911 165.307 470.027 165.485C470.144 165.664 470.19 165.885 470.156 166.1C470.121 166.315 470.01 166.507 469.845 166.633C469.495 166.911 462.189 172.382 449.464 172.382Z" fill="#263238"/>
<path d="M405.748 291.912V289.337H404.656L405.222 286.017H403.052L402.499 289.337H400.76L401.326 286.017H399.102L398.725 288.284V300.104H399.008L399.561 296.842H401.286L400.733 300.104H402.931L403.483 296.842H405.748V294.267H403.834L404.238 291.912H405.748ZM401.704 294.267H399.992L400.396 291.912H402.095L401.704 294.267Z" fill="white"/>
<path d="M414.106 286.002V299.885H410.897V290.786C410.437 291.226 409.935 291.613 409.401 291.941C408.813 292.275 408.2 292.554 407.568 292.775V289.645C408.487 289.337 409.343 288.841 410.089 288.182C410.677 287.574 411.137 286.836 411.437 286.017L414.106 286.002Z" fill="white"/>
<path d="M529.548 309.174H143.562V320.569H529.548V309.174Z" fill="#90CAF9"/>
<path opacity="0.5" d="M529.548 309.174H143.562V320.569H529.548V309.174Z" fill="white"/>
<path opacity="0.5" d="M529.548 309.174H441.659V320.569H529.548V309.174Z" fill="white"/>
<path d="M440.108 320.555H441.645V309.159H440.108V320.555Z" fill="white"/>
<path d="M522.983 320.569L534.63 532.727H530.007L516.028 328.147H455.166L441.2 532.727H436.577L448.21 320.569H522.983Z" fill="#90CAF9"/>
<path opacity="0.5" d="M522.983 320.569L534.63 532.727H530.007L516.028 328.147H455.166L441.2 532.727H436.577L448.21 320.569H522.983Z" fill="white"/>
<path d="M225.21 320.569L236.857 532.727H232.233L218.268 328.147H157.392L143.427 532.727H138.803L150.45 320.569H225.21Z" fill="#90CAF9"/>
<path opacity="0.2" d="M225.21 320.569L236.857 532.727H232.233L218.268 328.147H157.392L143.427 532.727H138.803L150.45 320.569H225.21Z" fill="white"/>
<path d="M318.074 279.653H175.914L163.014 186.075H305.187L318.074 279.653Z" fill="#90CAF9"/>
<path opacity="0.3" d="M238.933 279.653H258.492L253.815 236.528L247.776 254.697L238.933 279.653Z" fill="black"/>
<path opacity="0.3" d="M318.074 279.653H316.443L303.556 186.075H305.187L318.074 279.653Z" fill="black"/>
<path d="M266.513 305.209H227.825V309.174H269.856L266.513 305.209Z" fill="#90CAF9"/>
<path opacity="0.3" d="M266.513 305.209H227.825V309.174H269.856L266.513 305.209Z" fill="black"/>
<path d="M232.84 252.005L232.301 256.321H230.683C229.882 256.322 229.106 256.632 228.494 257.194C227.883 257.756 227.474 258.535 227.34 259.393L224.011 281.438C223.93 281.963 223.956 282.501 224.087 283.014C224.217 283.527 224.449 284.003 224.765 284.409C225.082 284.815 225.476 285.142 225.921 285.367C226.366 285.591 226.85 285.708 227.34 285.71H228.688V287.48H219.724V252.005H232.84Z" fill="#90CAF9"/>
<path opacity="0.3" d="M232.84 252.005L232.301 256.321H230.683C229.882 256.322 229.106 256.632 228.494 257.194C227.883 257.756 227.474 258.535 227.34 259.393L224.011 281.438C223.93 281.963 223.956 282.501 224.087 283.014C224.217 283.527 224.449 284.003 224.765 284.409C225.082 284.815 225.476 285.142 225.921 285.367C226.366 285.591 226.85 285.708 227.34 285.71H228.688V287.48H219.724V252.005H232.84Z" fill="black"/>
<path d="M219.724 232.871L208.172 309.174H243.853L255.405 232.871H219.724ZM239.499 260.592L236.156 282.623C236.028 283.482 235.623 284.264 235.013 284.83C234.404 285.395 233.629 285.707 232.826 285.71H225.938C225.447 285.708 224.963 285.591 224.518 285.366C224.073 285.142 223.678 284.816 223.36 284.41C223.042 284.004 222.809 283.528 222.677 283.015C222.545 282.502 222.517 281.964 222.595 281.438L225.938 259.393C226.069 258.534 226.477 257.753 227.09 257.191C227.702 256.628 228.479 256.32 229.281 256.321H236.156C236.651 256.314 237.141 256.424 237.592 256.645C238.044 256.866 238.445 257.192 238.767 257.599C239.09 258.006 239.326 258.485 239.46 259.003C239.593 259.52 239.62 260.063 239.54 260.592H239.499Z" fill="#90CAF9"/>
<path opacity="0.3" d="M243.894 309.174L242.168 308.925L253.68 232.871H255.446L243.894 309.174Z" fill="black"/>
<path opacity="0.3" d="M239 214.147H236.938L234.255 194.691H236.318L239 214.147Z" fill="black"/>
<path opacity="0.3" d="M242.842 214.147H240.766L238.097 194.691H240.16L242.842 214.147Z" fill="black"/>
<path opacity="0.3" d="M246.684 214.147H244.608L241.926 194.691H244.001L246.684 214.147Z" fill="black"/>
<path opacity="0.3" d="M250.526 214.147H248.45L245.767 194.691H247.843L250.526 214.147Z" fill="black"/>
<path opacity="0.3" d="M254.354 214.147H252.292L249.609 194.691H251.685L254.354 214.147Z" fill="black"/>
<path opacity="0.3" d="M235.159 214.147H233.096L230.414 194.691H232.476L235.159 214.147Z" fill="black"/>
<path opacity="0.3" d="M231.317 214.147H229.254L226.572 194.691H228.648L231.317 214.147Z" fill="black"/>
<path opacity="0.3" d="M227.475 214.147H225.413L222.73 194.691H224.806L227.475 214.147Z" fill="black"/>
<path opacity="0.3" d="M223.647 214.147H221.571L218.888 194.691H220.964L223.647 214.147Z" fill="black"/>
</svg>
