<svg width="44" height="44" viewBox="0 0 44 44" fill="none" xmlns="http://www.w3.org/2000/svg">
<path d="M22.0001 3.66667C18.3741 3.66667 14.8295 4.7419 11.8146 6.7564C8.79973 8.77089 6.4499 11.6342 5.0623 14.9841C3.67469 18.3341 3.31163 22.0203 4.01903 25.5767C4.72642 29.133 6.4725 32.3997 9.03647 34.9636C11.6004 37.5276 14.8671 39.2737 18.4234 39.9811C21.9798 40.6885 25.666 40.3254 29.016 38.9378C32.3659 37.5502 35.2292 35.2004 37.2437 32.1855C39.2582 29.1706 40.3334 25.626 40.3334 22C40.3334 19.5924 39.8592 17.2084 38.9379 14.9841C38.0165 12.7598 36.6661 10.7388 34.9637 9.03638C33.2613 7.33397 31.2403 5.98355 29.016 5.06221C26.7917 4.14088 24.4077 3.66667 22.0001 3.66667ZM22.0001 36.6667C19.0993 36.6667 16.2636 35.8065 13.8517 34.1949C11.4398 32.5833 9.55994 30.2927 8.44986 27.6127C7.33977 24.9327 7.04932 21.9837 7.61524 19.1387C8.18116 16.2936 9.57802 13.6803 11.6292 11.6291C13.6804 9.57794 16.2937 8.18107 19.1388 7.61515C21.9838 7.04924 24.9328 7.33969 27.6128 8.44977C30.2928 9.55986 32.5834 11.4397 34.195 13.8516C35.8066 16.2636 36.6668 19.0992 36.6668 22C36.6668 25.8898 35.1215 29.6204 32.371 32.3709C29.6205 35.1214 25.8899 36.6667 22.0001 36.6667ZM29.3334 20.1667H23.8334V14.6667C23.8334 14.1804 23.6403 13.7141 23.2965 13.3703C22.9526 13.0265 22.4863 12.8333 22.0001 12.8333C21.5139 12.8333 21.0475 13.0265 20.7037 13.3703C20.3599 13.7141 20.1668 14.1804 20.1668 14.6667V20.1667H14.6668C14.1805 20.1667 13.7142 20.3598 13.3704 20.7036C13.0266 21.0475 12.8334 21.5138 12.8334 22C12.8334 22.4862 13.0266 22.9525 13.3704 23.2964C13.7142 23.6402 14.1805 23.8333 14.6668 23.8333H20.1668V29.3333C20.1668 29.8196 20.3599 30.2859 20.7037 30.6297C21.0475 30.9735 21.5139 31.1667 22.0001 31.1667C22.4863 31.1667 22.9526 30.9735 23.2965 30.6297C23.6403 30.2859 23.8334 29.8196 23.8334 29.3333V23.8333H29.3334C29.8197 23.8333 30.286 23.6402 30.6298 23.2964C30.9736 22.9525 31.1668 22.4862 31.1668 22C31.1668 21.5138 30.9736 21.0475 30.6298 20.7036C30.286 20.3598 29.8197 20.1667 29.3334 20.1667Z" fill="white"/>
</svg>
