<svg width="39" height="38" viewBox="0 0 39 38" fill="none" xmlns="http://www.w3.org/2000/svg">
<path d="M32.5005 19.0005C32.5005 18.5806 32.3293 18.1778 32.0245 17.8809C31.7198 17.584 31.3065 17.4172 30.8755 17.4172H18.5417L22.2792 13.7913C22.4308 13.6437 22.5509 13.4684 22.6329 13.2756C22.7149 13.0827 22.7571 12.8759 22.7571 12.6672C22.7571 12.4584 22.7149 12.2516 22.6329 12.0588C22.5509 11.8659 22.4308 11.6906 22.2792 11.543C22.1277 11.3954 21.9479 11.2783 21.7499 11.1984C21.5519 11.1185 21.3398 11.0773 21.1255 11.0773C20.9112 11.0773 20.699 11.1185 20.5011 11.1984C20.3031 11.2783 20.1233 11.3954 19.9717 11.543L13.4717 17.8763C13.3238 18.0269 13.2078 18.2045 13.1305 18.3988C12.968 18.7843 12.968 19.2167 13.1305 19.6022C13.2078 19.7965 13.3238 19.9741 13.4717 20.1247L19.9717 26.458C20.1228 26.6064 20.3025 26.7242 20.5006 26.8046C20.6986 26.885 20.911 26.9263 21.1255 26.9263C21.34 26.9263 21.5524 26.885 21.7504 26.8046C21.9484 26.7242 22.1282 26.6064 22.2792 26.458C22.4315 26.3108 22.5524 26.1357 22.6349 25.9427C22.7174 25.7498 22.7599 25.5428 22.7599 25.3338C22.7599 25.1248 22.7174 24.9179 22.6349 24.7249C22.5524 24.532 22.4315 24.3568 22.2792 24.2097L18.5417 20.5838L30.8755 20.5838C31.3065 20.5838 31.7198 20.417 32.0245 20.1201C32.3293 19.8231 32.5005 19.4204 32.5005 19.0005ZM27.6255 3.16716L11.3755 3.16716C10.0826 3.16716 8.84258 3.66761 7.92834 4.5584C7.0141 5.4492 6.50049 6.65738 6.50049 7.91716L6.50049 30.0838C6.50049 31.3436 7.0141 32.5518 7.92834 33.4426C8.84258 34.3334 10.0826 34.8338 11.3755 34.8338H27.6255C28.9184 34.8338 30.1584 34.3334 31.0726 33.4426C31.9869 32.5518 32.5005 31.3436 32.5005 30.0838V25.3338C32.5005 24.9139 32.3293 24.5112 32.0245 24.2142C31.7198 23.9173 31.3065 23.7505 30.8755 23.7505C30.4445 23.7505 30.0312 23.9173 29.7264 24.2142C29.4217 24.5112 29.2505 24.9139 29.2505 25.3338V30.0838C29.2505 30.5038 29.0793 30.9065 28.7745 31.2034C28.4698 31.5003 28.0565 31.6672 27.6255 31.6672L11.3755 31.6672C10.9445 31.6672 10.5312 31.5003 10.2264 31.2034C9.92169 30.9065 9.75049 30.5038 9.75049 30.0838L9.75049 7.91716C9.75049 7.49723 9.92169 7.09451 10.2264 6.79757C10.5312 6.50064 10.9445 6.33383 11.3755 6.33383L27.6255 6.33383C28.0565 6.33383 28.4698 6.50064 28.7745 6.79757C29.0793 7.09451 29.2505 7.49723 29.2505 7.91716V12.6672C29.2505 13.0871 29.4217 13.4898 29.7264 13.7867C30.0312 14.0837 30.4445 14.2505 30.8755 14.2505C31.3065 14.2505 31.7198 14.0837 32.0245 13.7867C32.3293 13.4898 32.5005 13.0871 32.5005 12.6672V7.91716C32.5005 6.65738 31.9869 5.4492 31.0726 4.5584C30.1584 3.66761 28.9184 3.16716 27.6255 3.16716Z" fill="#FFFFFF"/>
</svg>
