<svg width="283" height="273" viewBox="0 0 283 273" fill="none" xmlns="http://www.w3.org/2000/svg">
<path d="M141.5 22.75C118.63 22.7919 96.2657 29.2487 77.1319 41.3338C57.9981 53.4189 42.9204 70.6108 33.7352 90.8154C24.55 111.02 21.6539 133.365 25.3995 155.129C29.1451 176.894 39.3709 197.137 54.8312 213.395C65.8732 224.941 79.2746 234.156 94.191 240.458C109.107 246.761 125.215 250.015 141.5 250.015C157.784 250.015 173.892 246.761 188.809 240.458C203.725 234.156 217.127 224.941 228.169 213.395C243.629 197.137 253.855 176.894 257.6 155.129C261.346 133.365 258.45 111.02 249.265 90.8154C240.08 70.6108 225.002 53.4189 205.868 41.3338C186.734 29.2487 164.37 22.7919 141.5 22.75ZM141.5 227.5C117.073 227.464 93.613 218.289 76.0562 201.906C81.3865 189.388 90.4542 178.682 102.107 171.147C113.76 163.612 127.471 159.589 141.5 159.589C155.528 159.589 169.24 163.612 180.893 171.147C192.546 178.682 201.613 189.388 206.944 201.906C189.387 218.289 165.927 227.464 141.5 227.5ZM117.917 113.75C117.917 109.25 119.3 104.852 121.891 101.111C124.482 97.3696 128.166 94.4536 132.475 92.7317C136.784 91.0098 141.526 90.5593 146.101 91.4371C150.676 92.3149 154.878 94.4817 158.176 97.6633C161.474 100.845 163.72 104.899 164.63 109.312C165.54 113.725 165.073 118.299 163.288 122.456C161.503 126.613 158.48 130.166 154.602 132.666C150.724 135.166 146.164 136.5 141.5 136.5C135.245 136.5 129.247 134.103 124.824 129.837C120.401 125.57 117.917 119.784 117.917 113.75ZM222.98 182C212.445 164.616 196.23 151.094 176.875 143.552C182.879 136.985 186.791 128.886 188.142 120.227C189.492 111.568 188.224 102.718 184.489 94.7367C180.755 86.7558 174.712 79.984 167.087 75.2339C159.461 70.4837 150.577 67.9571 141.5 67.9571C132.423 67.9571 123.539 70.4837 115.913 75.2339C108.288 79.984 102.245 86.7558 98.5105 94.7367C94.7758 102.718 93.5077 111.568 94.8583 120.227C96.209 128.886 100.121 136.985 106.125 143.552C86.7701 151.094 70.555 164.616 60.0195 182C51.6232 168.203 47.1869 152.499 47.1666 136.5C47.1666 112.365 57.1053 89.2191 74.7962 72.1533C92.4871 55.0875 116.481 45.5 141.5 45.5C166.519 45.5 190.513 55.0875 208.204 72.1533C225.895 89.2191 235.833 112.365 235.833 136.5C235.813 152.499 231.377 168.203 222.98 182Z" fill="white"/>
</svg>
